<?xml version="1.0" standalone="no"?><!DOCTYPE svg PUBLIC "-//W3C//DTD SVG 1.1//EN" "http://www.w3.org/Graphics/SVG/1.1/DTD/svg11.dtd"><svg t="1725861064805" class="icon" viewBox="0 0 1024 1024" version="1.1" xmlns="http://www.w3.org/2000/svg" p-id="17484" xmlns:xlink="http://www.w3.org/1999/xlink" width="32" height="32"><path d="M896 256h42.688v42.688H896zM896 213.312h42.688V256H896zM938.688 256h42.688v42.688h-42.688z" fill="#F0E9B6" p-id="17485"></path><path d="M384 256h42.688v42.688H384zM426.688 256h42.688v42.688h-42.688z" fill="#DA8002" p-id="17486"></path><path d="M469.312 256H512v42.688h-42.688zM298.688 298.688h42.688v42.688h-42.688z" fill="#DA8002" p-id="17487"></path><path d="M341.312 298.688H384v42.688h-42.688z" fill="#DA8002" p-id="17488"></path><path d="M384 298.688h42.688v42.688H384zM426.688 298.688h42.688v42.688h-42.688z" fill="#F49F00" p-id="17489"></path><path d="M469.312 298.688H512v42.688h-42.688z" fill="#F49F00" p-id="17490"></path><path d="M512 256h42.688v42.688H512z" fill="#DA8002" p-id="17491"></path><path d="M512 298.688h42.688v42.688H512z" fill="#F49F00" p-id="17492"></path><path d="M554.688 256h42.688v42.688h-42.688z" fill="#DA8002" p-id="17493"></path><path d="M768 298.688h42.688v42.688H768z" fill="#F49F00" p-id="17494"></path><path d="M810.688 298.688h42.688v42.688h-42.688z" fill="#DA8002" p-id="17495"></path><path d="M682.688 384h42.688v42.688h-42.688zM682.688 426.688h42.688v42.688h-42.688z" fill="#F49F00" p-id="17496"></path><path d="M682.688 469.312h42.688V512h-42.688zM725.312 384H768v42.688h-42.688z" fill="#F49F00" p-id="17497"></path><path d="M725.312 426.688H768v42.688h-42.688z" fill="#F49F00" p-id="17498"></path><path d="M725.312 469.312H768V512h-42.688zM682.688 512h42.688v42.688h-42.688z" fill="#F49F00" p-id="17499"></path><path d="M725.312 512H768v42.688h-42.688z" fill="#DA8002" p-id="17500"></path><path d="M768 384h42.688v42.688H768z" fill="#F49F00" p-id="17501"></path><path d="M768 426.688h42.688v42.688H768z" fill="#DA8002" p-id="17502"></path><path d="M768 469.312h42.688V512H768zM682.688 554.688h42.688v42.688h-42.688z" fill="#DA8002" p-id="17503"></path><path d="M682.688 597.312h42.688V640h-42.688z" fill="#DA8002" p-id="17504"></path><path d="M725.312 597.312H768V640h-42.688zM682.688 640h42.688v42.688h-42.688z" fill="#DA8002" p-id="17505"></path><path d="M725.312 640H768v42.688h-42.688zM768 554.688h42.688v42.688H768z" fill="#DA8002" p-id="17506"></path><path d="M768 597.312h42.688V640H768zM768 640h42.688v42.688H768zM810.688 384h42.688v42.688h-42.688zM810.688 512h42.688v42.688h-42.688zM810.688 554.688h42.688v42.688h-42.688z" fill="#DA8002" p-id="17507"></path><path d="M810.688 597.312h42.688V640h-42.688z" fill="#DA8002" p-id="17508"></path><path d="M853.312 597.312H896V640h-42.688zM213.312 384H256v42.688h-42.688z" fill="#DA8002" p-id="17509"></path><path d="M256 384h42.688v42.688H256zM298.688 384h42.688v42.688h-42.688z" fill="#F49F00" p-id="17510"></path><path d="M341.312 384H384v42.688h-42.688zM384 384h42.688v42.688H384zM426.688 384h42.688v42.688h-42.688z" fill="#F49F00" p-id="17511"></path><path d="M213.312 426.688H256v42.688h-42.688z" fill="#DA8002" p-id="17512"></path><path d="M256 426.688h42.688v42.688H256zM426.688 426.688h42.688v42.688h-42.688z" fill="#F49F00" p-id="17513"></path><path d="M469.312 426.688H512v42.688h-42.688zM213.312 469.312H256V512h-42.688zM298.688 469.312h42.688V512h-42.688z" fill="#F49F00" p-id="17514"></path><path d="M426.688 469.312h42.688V512h-42.688zM512 384h42.688v42.688H512zM512 426.688h42.688v42.688H512z" fill="#F49F00" p-id="17515"></path><path d="M512 469.312h42.688V512H512z" fill="#F49F00" p-id="17516"></path><path d="M298.688 512h42.688v42.688h-42.688z" fill="#DA8002" p-id="17517"></path><path d="M384 512h42.688v42.688H384zM426.688 512h42.688v42.688h-42.688zM554.688 384h42.688v42.688h-42.688zM554.688 426.688h42.688v42.688h-42.688z" fill="#F49F00" p-id="17518"></path><path d="M597.312 384H640v42.688h-42.688zM597.312 426.688H640v42.688h-42.688z" fill="#F49F00" p-id="17519"></path><path d="M597.312 469.312H640V512h-42.688zM554.688 512h42.688v42.688h-42.688z" fill="#F49F00" p-id="17520"></path><path d="M597.312 512H640v42.688h-42.688zM213.312 554.688H256v42.688h-42.688zM298.688 554.688h42.688v42.688h-42.688zM426.688 554.688h42.688v42.688h-42.688z" fill="#F49F00" p-id="17521"></path><path d="M213.312 597.312H256V640h-42.688zM298.688 597.312h42.688V640h-42.688zM426.688 597.312h42.688V640h-42.688zM512 554.688h42.688v42.688H512z" fill="#F49F00" p-id="17522"></path><path d="M512 597.312h42.688V640H512zM213.312 640H256v42.688h-42.688zM256 640h42.688v42.688H256z" fill="#F49F00" p-id="17523"></path><path d="M298.688 640h42.688v42.688h-42.688z" fill="#DA8002" p-id="17524"></path><path d="M341.312 640H384v42.688h-42.688z" fill="#DA8002" p-id="17525"></path><path d="M384 640h42.688v42.688H384zM426.688 640h42.688v42.688h-42.688z" fill="#F49F00" p-id="17526"></path><path d="M469.312 640H512v42.688h-42.688zM512 640h42.688v42.688H512zM597.312 554.688H640v42.688h-42.688z" fill="#F49F00" p-id="17527"></path><path d="M597.312 597.312H640V640h-42.688zM554.688 640h42.688v42.688h-42.688z" fill="#F49F00" p-id="17528"></path><path d="M597.312 640H640v42.688h-42.688zM256 341.312h42.688V384H256z" fill="#DA8002" p-id="17529"></path><path d="M298.688 341.312h42.688V384h-42.688z" fill="#F49F00" p-id="17530"></path><path d="M341.312 341.312H384V384h-42.688zM384 341.312h42.688V384H384zM426.688 341.312h42.688V384h-42.688z" fill="#F49F00" p-id="17531"></path><path d="M469.312 341.312H512V384h-42.688zM554.688 341.312h42.688V384h-42.688z" fill="#F49F00" p-id="17532"></path><path d="M597.312 341.312H640V384h-42.688zM640 341.312h42.688V384H640zM640 384h42.688v42.688H640zM640 426.688h42.688v42.688H640z" fill="#F49F00" p-id="17533"></path><path d="M640 469.312h42.688V512H640zM640 512h42.688v42.688H640zM640 554.688h42.688v42.688H640z" fill="#F49F00" p-id="17534"></path><path d="M640 597.312h42.688V640H640zM640 640h42.688v42.688H640z" fill="#DA8002" p-id="17535"></path><path d="M682.688 341.312h42.688V384h-42.688z" fill="#F49F00" p-id="17536"></path><path d="M725.312 341.312H768V384h-42.688zM768 341.312h42.688V384H768z" fill="#F49F00" p-id="17537"></path><path d="M810.688 341.312h42.688V384h-42.688zM170.688 469.312h42.688V512h-42.688zM341.312 469.312H384V512h-42.688z" fill="#DA8002" p-id="17538"></path><path d="M469.312 469.312H512V512h-42.688zM170.688 512h42.688v42.688h-42.688zM256 512h42.688v42.688H256zM469.312 512H512v42.688h-42.688zM512 512h42.688v42.688H512zM554.688 469.312h42.688V512h-42.688zM170.688 554.688h42.688v42.688h-42.688zM256 554.688h42.688v42.688H256z" fill="#F49F00" p-id="17539"></path><path d="M341.312 554.688H384v42.688h-42.688z" fill="#DA8002" p-id="17540"></path><path d="M469.312 554.688H512v42.688h-42.688zM170.688 597.312h42.688V640h-42.688zM256 597.312h42.688V640H256zM341.312 597.312H384V640h-42.688z" fill="#F49F00" p-id="17541"></path><path d="M384 597.312h42.688V640H384z" fill="#DA8002" p-id="17542"></path><path d="M469.312 597.312H512V640h-42.688zM554.688 554.688h42.688v42.688h-42.688z" fill="#F49F00" p-id="17543"></path><path d="M554.688 597.312h42.688V640h-42.688z" fill="#F49F00" p-id="17544"></path><path d="M682.688 725.312h42.688V768h-42.688z" fill="#FFFFFF" p-id="17545"></path><path d="M725.312 725.312H768V768h-42.688zM768 725.312h42.688V768H768zM810.688 682.688h42.688v42.688h-42.688z" fill="#FFFFFF" p-id="17546"></path><path d="M810.688 725.312h42.688V768h-42.688zM896 640h42.688v42.688H896zM938.688 640h42.688v42.688h-42.688z" fill="#FFFFFF" p-id="17547"></path><path d="M853.312 682.688H896v42.688h-42.688zM896 682.688h42.688v42.688H896zM938.688 682.688h42.688v42.688h-42.688zM42.688 640h42.688v42.688H42.688z" fill="#FFFFFF" p-id="17548"></path><path d="M85.312 640H128v42.688h-42.688zM42.688 682.688h42.688v42.688H42.688z" fill="#FFFFFF" p-id="17549"></path><path d="M85.312 682.688H128v42.688h-42.688zM128 682.688h42.688v42.688H128zM170.688 682.688h42.688v42.688h-42.688z" fill="#FFFFFF" p-id="17550"></path><path d="M170.688 725.312h42.688V768h-42.688zM341.312 725.312H384V768h-42.688zM384 725.312h42.688V768H384zM426.688 725.312h42.688V768h-42.688z" fill="#FFFFFF" p-id="17551"></path><path d="M469.312 725.312H512V768h-42.688z" fill="#FFFFFF" p-id="17552"></path><path d="M384 768h42.688v42.688H384zM426.688 768h42.688v42.688h-42.688z" fill="#C7C8C8" p-id="17553"></path><path d="M469.312 768H512v42.688h-42.688z" fill="#C7C8C8" p-id="17554"></path><path d="M512 725.312h42.688V768H512z" fill="#FFFFFF" p-id="17555"></path><path d="M512 768h42.688v42.688H512z" fill="#C7C8C8" p-id="17556"></path><path d="M554.688 725.312h42.688V768h-42.688z" fill="#FFFFFF" p-id="17557"></path><path d="M597.312 768H640v42.688h-42.688z" fill="#C7C8C8" p-id="17558"></path><path d="M554.688 768h42.688v42.688h-42.688z" fill="#C7C8C8" p-id="17559"></path><path d="M597.312 725.312H640V768h-42.688zM640 725.312h42.688V768H640z" fill="#FFFFFF" p-id="17560"></path><path d="M640 768h42.688v42.688H640z" fill="#C7C8C8" p-id="17561"></path><path d="M213.312 725.312H256V768h-42.688zM256 725.312h42.688V768H256zM298.688 725.312h42.688V768h-42.688z" fill="#FFFFFF" p-id="17562"></path><path d="M341.312 768H384v42.688h-42.688z" fill="#C7C8C8" p-id="17563"></path><path d="M384 213.312h42.688V256H384zM426.688 213.312h42.688V256h-42.688z" p-id="17564"></path><path d="M469.312 213.312H512V256h-42.688zM298.688 256h42.688v42.688h-42.688z" p-id="17565"></path><path d="M341.312 256H384v42.688h-42.688zM256 298.688h42.688v42.688H256zM512 213.312h42.688V256H512zM554.688 213.312h42.688V256h-42.688zM554.688 298.688h42.688v42.688h-42.688zM597.312 256H640v42.688h-42.688z" p-id="17566"></path><path d="M597.312 298.688H640v42.688h-42.688zM682.688 298.688h42.688v42.688h-42.688z" p-id="17567"></path><path d="M725.312 298.688H768v42.688h-42.688zM768 256h42.688v42.688H768zM810.688 256h42.688v42.688h-42.688zM853.312 213.312H896V256h-42.688z" p-id="17568"></path><path d="M853.312 256H896v42.688h-42.688zM853.312 298.688H896v42.688h-42.688zM896 298.688h42.688v42.688H896zM938.688 298.688h42.688v42.688h-42.688zM768 512h42.688v42.688H768zM725.312 554.688H768v42.688h-42.688zM682.688 682.688h42.688v42.688h-42.688z" p-id="17569"></path><path d="M725.312 682.688H768v42.688h-42.688zM768 682.688h42.688v42.688H768zM725.312 768H768v42.688h-42.688zM768 768h42.688v42.688H768zM810.688 426.688h42.688v42.688h-42.688z" p-id="17570"></path><path d="M810.688 469.312h42.688V512h-42.688zM810.688 640h42.688v42.688h-42.688zM810.688 768h42.688v42.688h-42.688zM853.312 384H896v42.688h-42.688zM853.312 512H896v42.688h-42.688zM853.312 554.688H896v42.688h-42.688zM896 597.312h42.688V640H896z" p-id="17571"></path><path d="M853.312 640H896v42.688h-42.688zM938.688 597.312h42.688V640h-42.688zM853.312 725.312H896V768h-42.688zM896 725.312h42.688V768H896zM170.688 384h42.688v42.688h-42.688zM469.312 384H512v42.688h-42.688zM170.688 426.688h42.688v42.688h-42.688zM298.688 426.688h42.688v42.688h-42.688z" p-id="17572"></path><path d="M341.312 426.688H384v42.688h-42.688zM384 426.688h42.688v42.688H384z" p-id="17573"></path><path d="M384 469.312h42.688V512H384zM213.312 512H256v42.688h-42.688zM128 554.688h42.688v42.688H128zM384 554.688h42.688v42.688H384zM42.688 597.312h42.688V640H42.688z" p-id="17574"></path><path d="M128 597.312h42.688V640H128zM128 640h42.688v42.688H128zM170.688 640h42.688v42.688h-42.688zM213.312 682.688H256v42.688h-42.688zM256 682.688h42.688v42.688H256zM298.688 682.688h42.688v42.688h-42.688z" p-id="17575"></path><path d="M341.312 682.688H384v42.688h-42.688zM384 682.688h42.688v42.688H384zM426.688 682.688h42.688v42.688h-42.688z" p-id="17576"></path><path d="M469.312 682.688H512v42.688h-42.688zM512 682.688h42.688v42.688H512zM554.688 682.688h42.688v42.688h-42.688z" p-id="17577"></path><path d="M597.312 682.688H640v42.688h-42.688zM42.688 725.312h42.688V768H42.688z" p-id="17578"></path><path d="M85.312 725.312H128V768h-42.688zM128 725.312h42.688V768H128zM426.688 810.688h42.688v42.688h-42.688z" p-id="17579"></path><path d="M469.312 810.688H512v42.688h-42.688zM213.312 768H256v42.688h-42.688zM256 768h42.688v42.688H256zM298.688 768h42.688v42.688h-42.688zM341.312 810.688H384v42.688h-42.688zM554.688 810.688h42.688v42.688h-42.688z" p-id="17580"></path><path d="M597.312 810.688H640v42.688h-42.688zM512 810.688h42.688v42.688H512zM682.688 768h42.688v42.688h-42.688zM938.688 725.312h42.688V768h-42.688zM213.312 341.312H256V384h-42.688zM512 341.312h42.688V384H512zM640 298.688h42.688v42.688H640zM0 640h42.688v42.688H0zM896 170.688h42.688v42.688H896z" p-id="17581"></path><path d="M938.624 170.688h42.688v42.688h-42.688z" p-id="17582"></path><path d="M938.624 213.312h42.688V256h-42.688zM981.312 256H1024v42.688h-42.688zM0 682.688h42.688v42.688H0zM640 682.688h42.688v42.688H640zM640 810.688h42.688v42.688H640zM853.312 341.312H896V384h-42.688zM981.312 298.688H1024v42.688h-42.688zM981.312 640H1024v42.688h-42.688zM981.312 682.688H1024v42.688h-42.688zM128 469.312h42.688V512H128zM256 469.312h42.688V512H256zM128 512h42.688v42.688H128zM341.312 512H384v42.688h-42.688zM85.312 597.312H128V640h-42.688zM170.688 768h42.688v42.688h-42.688zM384 810.688h42.688v42.688H384z" p-id="17583"></path></svg>